<svg width="50" height="50" viewBox="0 0 50 50" fill="none" xmlns="http://www.w3.org/2000/svg">
<circle cx="25.0005" cy="25" r="25" fill="#F9B300"/>
<path d="M39.4982 17.9636L37.5075 15.3945C37.241 15.0505 36.8401 14.8533 36.4075 14.8533H34.7636C34.6084 14.5644 34.3054 14.3679 33.9578 14.3679H32.1055L26.6997 12.5487C26.5725 12.5059 26.4425 12.4745 26.3107 12.4542L26.5778 11.1059C26.6318 10.8332 26.5626 10.5534 26.3879 10.3383C26.2133 10.1232 25.9551 9.99976 25.6796 9.99976H23.968C23.6925 9.99976 23.4344 10.1231 23.2597 10.3382C23.0849 10.5533 23.0157 10.8331 23.0698 11.1059L23.3369 12.4542C23.2051 12.4745 23.0751 12.5059 22.9479 12.5487L17.5421 14.3679H15.6898C15.2524 14.3679 14.8347 14.5788 14.5724 14.932L13.707 16.0968C13.5525 16.3049 13.5281 16.5786 13.6432 16.8112C13.7584 17.0438 13.99 17.1883 14.2475 17.1883H14.9659C14.9803 17.1883 14.994 17.1952 15.0025 17.207L17.9761 21.2852L18.2251 23.2965C18.2527 23.5188 18.4401 23.6815 18.6565 23.6815C18.6745 23.6815 18.6927 23.6803 18.711 23.6781C18.9495 23.6479 19.1188 23.4283 19.089 23.1875L18.83 21.0959L18.9972 15.2469H21.0744L22.3637 25.6601C22.3792 25.7851 22.4114 25.9043 22.4567 26.0165H19.4794C19.4565 26.0165 19.4371 25.9992 19.4343 25.9763L19.3067 24.9454C19.2768 24.7045 19.0597 24.5336 18.8207 24.5638C18.5823 24.5939 18.413 24.8135 18.4428 25.0544L18.5704 26.0853C18.6276 26.5471 19.0185 26.8954 19.4794 26.8954H19.5812V29.4139H19.469C19.0119 29.4139 18.631 29.7451 18.5631 30.2015L17.3479 38.3804C17.2875 38.7868 17.4052 39.1984 17.6707 39.5098C17.9363 39.8212 18.3221 39.9998 18.7291 39.9998H19.7915C20.032 39.9998 20.2268 39.803 20.2268 39.5603C20.2268 39.3176 20.032 39.1208 19.7915 39.1208H18.7291C18.5735 39.1208 18.4319 39.0553 18.3304 38.9363C18.2289 38.8173 18.1857 38.6662 18.2087 38.5108L18.2759 38.0584H31.3715L31.4387 38.5108C31.4618 38.6661 31.4186 38.8172 31.317 38.9363C31.2155 39.0553 31.0739 39.1208 30.9183 39.1208H21.5327C21.2922 39.1208 21.0974 39.3176 21.0974 39.5603C21.0974 39.803 21.2922 39.9998 21.5327 39.9998H30.9184C31.3254 39.9998 31.7111 39.8212 31.9768 39.5099C32.2423 39.1985 32.36 38.7868 32.2997 38.3805L31.0845 30.2015C31.0166 29.7451 30.6357 29.4139 30.1786 29.4139H30.0664V26.8953H30.1682C30.6291 26.8953 31.02 26.547 31.0772 26.0851L31.8783 19.615H33.2895C33.4703 19.615 33.647 19.5802 33.8145 19.5115L34.6258 19.1792C35.2568 18.921 35.9792 19.1268 36.3829 19.6802C36.6455 20.04 36.7416 20.4968 36.6466 20.9334L35.2311 27.4364C35.2265 27.4576 35.2082 27.4725 35.1867 27.4725H33.9578C33.4527 27.4725 33.0418 27.8873 33.0418 28.3973V29.3679C33.0418 29.8779 33.4527 30.2928 33.9578 30.2928H36.391C37.04 30.2928 37.5986 29.8477 37.7494 29.2105L39.9344 19.9842C40.1024 19.2746 39.9434 18.5382 39.4982 17.9636ZM34.0033 15.2928V16.4177C34.0033 16.6766 33.8199 16.8967 33.5673 16.9411L32.1792 17.1848L32.4191 15.2468H33.9578C33.9829 15.2468 34.0033 15.2674 34.0033 15.2928ZM23.9328 10.8955C23.9464 10.8787 23.9627 10.8787 23.968 10.8787H25.6796C25.6849 10.8787 25.7011 10.8787 25.7148 10.8955C25.7284 10.9122 25.7253 10.9283 25.7242 10.9336L25.4285 12.4265H24.2191L23.9234 10.9336C23.9223 10.9283 23.9192 10.9123 23.9328 10.8955ZM14.9659 16.3093H14.6374L15.2689 15.4593C15.3677 15.3262 15.525 15.2468 15.6898 15.2468H18.1261L17.9952 19.8289L15.7037 16.6859C15.5318 16.4501 15.256 16.3093 14.9659 16.3093ZM23.2233 13.3825C23.3752 13.3313 23.5334 13.3054 23.6937 13.3054H25.954C26.1142 13.3054 26.2724 13.3313 26.4244 13.3825L29.3526 14.3679H20.295L23.2233 13.3825ZM23.2275 25.551L21.9517 15.2468H27.6958L26.4201 25.5509C26.3873 25.8163 26.1627 26.0164 25.898 26.0164H23.7496C23.4848 26.0164 23.2603 25.8163 23.2275 25.551ZM19.424 30.3318C19.4273 30.3092 19.4463 30.2927 19.4689 30.2927H22.4704C22.4289 30.3947 22.3977 30.5021 22.3809 30.6147L21.4056 37.1795H18.4066L19.424 30.3318ZM26.4391 30.7452L27.3951 37.1794H22.2859L23.2419 30.7451C23.2802 30.4872 23.504 30.2927 23.7623 30.2927H25.9188C26.1771 30.2927 26.4008 30.4872 26.4391 30.7452ZM30.2236 30.3318L31.241 37.1795H28.2753L27.3 30.6149C27.2833 30.5022 27.252 30.3947 27.2104 30.2928H30.1786C30.2013 30.2927 30.2203 30.3092 30.2236 30.3318ZM29.1959 29.4138H20.4517V26.8953H29.1959V29.4138ZM30.2134 25.9761C30.2105 25.9991 30.1911 26.0164 30.1683 26.0164H27.191C27.2363 25.9043 27.2685 25.785 27.284 25.66L28.5732 15.2468H31.5418L30.2134 25.9761ZM39.0878 19.7798L36.9028 29.0061C36.846 29.2462 36.6355 29.4138 36.3911 29.4138H33.9578C33.9327 29.4138 33.9123 29.3932 33.9123 29.3679V28.3972C33.9123 28.3719 33.9328 28.3513 33.9578 28.3513H35.1867C35.6135 28.3513 35.9898 28.0459 36.0813 27.625L37.4968 21.1221C37.6456 20.4382 37.4951 19.7226 37.0838 19.159C36.4438 18.2819 35.2983 17.9553 34.2986 18.3649L33.4873 18.6972C33.4241 18.723 33.3576 18.7361 33.2895 18.7361H31.9871L32.0663 18.0968L33.7164 17.807C34.3871 17.6892 34.8738 17.105 34.8738 16.4178V15.7322H36.4075C36.5704 15.7322 36.7214 15.8066 36.8219 15.9361L38.8126 18.5052C39.0935 18.8676 39.1937 19.3322 39.0878 19.7798Z" fill="black"/>
</svg>
