<svg width="60" height="60" viewBox="0 0 60 60" fill="none" xmlns="http://www.w3.org/2000/svg">
<circle cx="30" cy="30" r="30" fill="#F9B300"/>
<path d="M35.3899 40.7143V38.3334C35.3899 37.0704 34.8973 35.8592 34.0205 34.9662C33.1437 34.0732 31.9545 33.5715 30.7146 33.5715H22.5327C21.2928 33.5715 20.1036 34.0732 19.2268 34.9662C18.35 35.8592 17.8574 37.0704 17.8574 38.3334V40.7143M36.5587 28.8096L38.8964 31.1905L43.5717 26.4286M31.299 24.0477C31.299 26.6776 29.2058 28.8096 26.6237 28.8096C24.0415 28.8096 21.9483 26.6776 21.9483 24.0477C21.9483 21.4177 24.0415 19.2858 26.6237 19.2858C29.2058 19.2858 31.299 21.4177 31.299 24.0477Z" stroke="white" stroke-width="2.12553" stroke-linecap="round" stroke-linejoin="round"/>
</svg>
