<svg width="60" height="60" viewBox="0 0 60 60" fill="none" xmlns="http://www.w3.org/2000/svg">
<circle cx="30" cy="30" r="30" fill="#F9B300"/>
<path d="M36.8707 26.7858H37.9252C39.0438 26.7858 40.1166 27.2373 40.9075 28.041C41.6985 28.8448 42.1429 29.9348 42.1429 31.0715C42.1429 32.2081 41.6985 33.2982 40.9075 34.1019C40.1166 34.9057 39.0438 35.3572 37.9252 35.3572H36.8707M36.8707 26.7858H20V36.4286C20 37.5653 20.4444 38.6554 21.2353 39.4591C22.0263 40.2628 23.0991 40.7143 24.2177 40.7143H32.6531C33.7717 40.7143 34.8444 40.2628 35.6354 39.4591C36.4264 38.6554 36.8707 37.5653 36.8707 36.4286V26.7858ZM24.2177 19.2858V22.5001M28.4354 19.2858V22.5001M32.6531 19.2858V22.5001" stroke="white" stroke-width="2.12553" stroke-linecap="round" stroke-linejoin="round"/>
</svg>
